<svg xmlns="http://www.w3.org/2000/svg" viewBox="0 0 64 64" fill="none">
  <!-- ˆG -->
  <path d="M18 52 C14 44 14 34 18 28 C22 22 26 24 28 30 C26 38 24 48 18 52Z" fill="#5CB85C"/>
  <path d="M46 54 C50 46 50 36 46 30 C42 24 38 26 36 32 C38 40 40 50 46 54Z" fill="#4FAF45"/>
  <path d="M32 56 L32 34" stroke="#3D9A3A" stroke-width="2" stroke-linecap="round"/>
  <!-- B±„ -->
  <ellipse cx="32" cy="22" rx="14" ry="11" fill="#F8A4C8" transform="rotate(0 32 22)"/>
  <ellipse cx="32" cy="22" rx="14" ry="11" fill="#F48FB8" transform="rotate(45 32 22)"/>
  <ellipse cx="32" cy="22" rx="14" ry="11" fill="#F8A4C8" transform="rotate(90 32 22)"/>
  <ellipse cx="32" cy="22" rx="14" ry="11" fill="#F06292" transform="rotate(135 32 22)"/>
  <!-- -B -->
  <ellipse cx="32" cy="22" rx="10" ry="8" fill="#EC407A" transform="rotate(22 32 22)"/>
  <ellipse cx="32" cy="22" rx="10" ry="8" fill="#F48FB8" transform="rotate(67 32 22)"/>
  <ellipse cx="32" cy="22" rx="10" ry="8" fill="#EC407A" transform="rotate(112 32 22)"/>
  <ellipse cx="32" cy="22" rx="10" ry="8" fill="#F48FB8" transform="rotate(157 32 22)"/>
  <!-- ±√ -->
  <circle cx="32" cy="22" r="5" fill="#FFD54F"/>
  <circle cx="30" cy="21" r="1.2" fill="#FF8F00"/>
  <circle cx="34" cy="21" r="1.2" fill="#FF8F00"/>
  <circle cx="32" cy="24" r="1.2" fill="#FF8F00"/>
  <circle cx="30" cy="23" r="1" fill="#FF8F00"/>
  <circle cx="34" cy="23" r="1" fill="#FF8F00"/>
</svg>
