<svg xmlns="http://www.w3.org/2000/svg" viewBox="0 0 64 64" fill="none">
  <path d="M30 58 C22 52 18 42 20 32 C22 22 28 18 32 20 C34 28 34 48 30 58Z" fill="#6BBF59"/>
  <path d="M34 58 C42 50 46 38 44 28 C42 18 36 16 32 18 C30 26 30 46 34 58Z" fill="#4FAF45"/>
  <path d="M32 58 L32 28" stroke="#3D9A3A" stroke-width="2.2" stroke-linecap="round"/>
  <ellipse cx="32" cy="24" rx="3" ry="5" fill="#E85D4A"/>
  <g transform="translate(32,14)">
    <ellipse cx="0" cy="-5" rx="5" ry="9" fill="#F04A3A" transform="rotate(0)"/>
    <ellipse cx="0" cy="-5" rx="5" ry="9" fill="#E63E32" transform="rotate(60)"/>
    <ellipse cx="0" cy="-5" rx="5" ry="9" fill="#F04A3A" transform="rotate(120)"/>
    <ellipse cx="0" cy="-5" rx="5" ry="9" fill="#E63E32" transform="rotate(180)"/>
    <ellipse cx="0" cy="-5" rx="5" ry="9" fill="#F04A3A" transform="rotate(240)"/>
    <ellipse cx="0" cy="-5" rx="5" ry="9" fill="#E63E32" transform="rotate(300)"/>
    <circle cx="0" cy="0" r="3.5" fill="#FFD166"/>
    <circle cx="0" cy="0" r="1.8" fill="#FFAA33"/>
  </g>
  <g transform="translate(22,20) rotate(-18)">
    <ellipse cx="0" cy="-4" rx="3.5" ry="6.5" fill="#F25545" transform="rotate(0)"/>
    <ellipse cx="0" cy="-4" rx="3.5" ry="6.5" fill="#E63E32" transform="rotate(72)"/>
    <ellipse cx="0" cy="-4" rx="3.5" ry="6.5" fill="#F25545" transform="rotate(144)"/>
    <ellipse cx="0" cy="-4" rx="3.5" ry="6.5" fill="#E63E32" transform="rotate(216)"/>
    <ellipse cx="0" cy="-4" rx="3.5" ry="6.5" fill="#F25545" transform="rotate(288)"/>
    <circle cx="0" cy="0" r="2.2" fill="#FFD166"/>
  </g>
  <g transform="translate(42,22) rotate(15)">
    <ellipse cx="0" cy="-3.5" rx="3" ry="5.5" fill="#F25545" transform="rotate(0)"/>
    <ellipse cx="0" cy="-3.5" rx="3" ry="5.5" fill="#E63E32" transform="rotate(72)"/>
    <ellipse cx="0" cy="-3.5" rx="3" ry="5.5" fill="#F25545" transform="rotate(144)"/>
    <ellipse cx="0" cy="-3.5" rx="3" ry="5.5" fill="#E63E32" transform="rotate(216)"/>
    <ellipse cx="0" cy="-3.5" rx="3" ry="5.5" fill="#F25545" transform="rotate(288)"/>
    <circle cx="0" cy="0" r="1.8" fill="#FFD166"/>
  </g>
</svg>
