<svg xmlns="http://www.w3.org/2000/svg" viewBox="0 0 64 64" fill="none">
  <!-- yţţ -->
  <path d="M14 28 C14 18 24 12 32 12 C40 12 50 18 50 28" stroke="#C5ABD3" stroke-width="2.5" stroke-linecap="round" fill="none"/>
  <path d="M32 12 L32 8" stroke="#B89AD0" stroke-width="2" stroke-linecap="round"/>
  <!-- 
`§ -->
  <path d="M28 28 L32 34 L36 28 Z" fill="#E8D4F8" stroke="#C5ABD3" stroke-width="1.2" stroke-linejoin="round"/>
  <!-- ;ťó -->
  <path d="M32 34 L26 44 L32 52 L38 44 Z" fill="#9ACBFB" stroke="#7AB8F0" stroke-width="1.2" stroke-linejoin="round"/>
  <path d="M32 34 L29 44 L32 48 L35 44 Z" fill="#B6DBFB" opacity="0.7"/>
  <!-- ŘI -->
  <ellipse cx="30" cy="42" rx="2" ry="3" fill="#fff" opacity="0.55" transform="rotate(-20 30 42)"/>
  <!-- » -->
  <path d="M22 26 L24 30 L22 34 L20 30 Z" fill="#FCA7C4"/>
  <path d="M42 26 L44 30 L42 34 L40 30 Z" fill="#FCA7C4"/>
  <circle cx="32" cy="14" r="2.5" fill="#FFD166" stroke="#F0B429" stroke-width="0.8"/>
</svg>
